/* XPM */
static char *result[] = {
/* columns rows colors chars-per-pixel */
"64 64 127 2 ",
"   c #1D001C",
".  c #1E001D",
"X  c #1E001E",
"o  c #1F001E",
"O  c #1F011F",
"+  c #1F021F",
"@  c #1F041F",
"#  c #1F051F",
"$  c #1F061F",
"%  c #1F071F",
"&  c #1F091F",
"*  c #1F0A1F",
"=  c #200C1F",
"-  c #200D1F",
";  c #200E1F",
":  c #20121F",
">  c #201220",
",  c #201320",
"<  c #201420",
"1  c #201520",
"2  c #201620",
"3  c #201720",
"4  c #201820",
"5  c #201920",
"6  c #201A20",
"7  c #201B20",
"8  c #201C20",
"9  c #211C20",
"0  c #211D20",
"q  c #211D21",
"w  c #211F21",
"e  c #212021",
"r  c gray13",
"t  c #212221",
"y  c #212321",
"u  c #212522",
"i  c #222722",
"p  c #222822",
"a  c #222922",
"s  c #222D23",
"d  c #222E23",
"f  c #233224",
"g  c #233324",
"h  c #233424",
"j  c #233524",
"k  c #243624",
"l  c #243925",
"z  c #243B25",
"x  c #253D26",
"c  c #253F26",
"v  c #254227",
"b  c #264427",
"n  c #264527",
"m  c #264628",
"M  c #264728",
"N  c #274828",
"B  c #274928",
"V  c #274B29",
"C  c #284E2A",
"Z  c #284F2A",
"A  c #28502A",
"S  c #28512A",
"D  c #29522B",
"F  c #29552B",
"G  c #2A572C",
"H  c #2A582C",
"J  c #2A592C",
"K  c #2A592D",
"L  c #2A5A2D",
"P  c #2C602E",
"I  c #2C622F",
"U  c #2D632F",
"Y  c #2D642F",
"T  c #2D6630",
"R  c #2D6730",
"E  c #2E6831",
"W  c #2E6931",
"Q  c #2E6A31",
"!  c #2E6B32",
"~  c #2F6C32",
"^  c #2F6D32",
"/  c #306F33",
"(  c #307033",
")  c #307234",
"_  c #307334",
"`  c #317334",
"'  c #317434",
"]  c #317535",
"[  c #317635",
"{  c #327735",
"}  c #327836",
"|  c #327936",
" . c #337B37",
".. c #337C37",
"X. c #337D37",
"o. c #347F38",
"O. c #348038",
"+. c #348138",
"@. c #348139",
"#. c #358239",
"$. c #358439",
"%. c #35853A",
"&. c #36853A",
"*. c #36863A",
"=. c #36873B",
"-. c #36883B",
";. c #37893B",
":. c #378A3C",
">. c #378B3C",
",. c #378C3C",
"<. c #388D3D",
"1. c #388E3D",
"2. c #388F3D",
"3. c #38903E",
"4. c #39903E",
"5. c #39913E",
"6. c #39923E",
"7. c #39923F",
"8. c #39933F",
"9. c #3A933F",
"0. c #3A943F",
"q. c #3A953F",
"w. c #3A9640",
"e. c #3B9740",
"r. c #3B9840",
"t. c #3B9841",
"y. c #3C9A41",
/* pixels */
"r r r r r r r r r r r r r r r r r r r r r r r r r r r r r r r r r r r r r r r r r r r r r r r r r r r r r r r r r r r r r r r r ",
"r r r r r r r r r r r r r r r r r r r r r r r r r r r r r r r r r r r r r r r r r r r r r r r r r r r r r r r r r r r r r r r r ",
"r r r r r r r r r r r r r r r r r r r r r r r r r r r r r r r r r r r r r r r r r r r r r r r r r r r r r r r r r r r r r r r r ",
"r r r r r r r r r r r r r r r r r r r r r r r r r r r r r r r r r r r r r r r r r r r r r r r r r r r r r r r r r r r r r r r r ",
"r r r r r r r r r r r r r r r r r r r r r r r r r r r r r r r r r r r r r r r r r r r r r r r r r r r r r r r r r r r r r r r r ",
"r r r r r r r r r r r r r r r r r r r r r r r r r r r r r r r r r r r r r r r r r r r r r r r r r r r r r r r r r r r r r r r r ",
"r r r r r r r r r r r r r r r r r r r r r r r r r r r r r r r r r r r r r r r r r r r r r r r r r r r r r r r r r r r r r r r r ",
"r r r r r r r r r r r r r r r r r r r r r r r r r r r r r r r r r r r r r r r r r r r r r r r r r r r r r r r r r r r r r r r r ",
"r r r r r r r r r r r r r r r r r r r r r r r r r r r r r r r r r r r r r r r r r r r r r r r r r r r r r r r r r r r r r r r r ",
"r r r r r r r r r r r r r r r r r r r r r r r r r r r r r r r r r r r r r r r r r r r r r r r r r r r r r r r r r r r r r r r r ",
"r r r r r r r r r r r r r r r r r r r r r r r r r r r r r r r r r r r r r r r r r r r r r r r r r r r r r r r r r r r r r r r r ",
"r r r r r r r r r r r r r r r r r r r r e e e e e e e e e e e e e e e e e e e e e e e e r r r r r r r r r r r r r r r r r r r r ",
"r r r r r r r r r r r r r r r r t r q 2 ; & * = = = = = = = = = = = = = = = = = = * & ; 2 q r t r r r r r r r r r r r r r r r r ",
"r r r r r r r r r r r r r r r t y t 5 $ X . . . . . . . . . . . . . . . . . . . . . . X % 5 t y t r r r r r r r r r r r r r r r ",
"r r r r r r r r r r r r r r r r e r y u i p p i i i i i i i i i i i i i i i i i i p p i u y r e r r r r r r r r r r r r r r r r ",
"r r r r r r r r r r r r r r r q 3 w j N F L K H G G G G G G G G G G G G G G G G H K L F N j w 3 q r r r r r r r r r r r r r r r ",
"r r r r r r r r r r r r r r r 5 + 9 b I ] .. .| } } } } } } } } } } } } } } } } |  .X.] I b 9 + 4 r r r r r r r r r r r r r r r ",
"r r r r r r r r r r r r r r r < . 6 C ) -.5.4.<.<.<.<.<.<.<.<.<.<.<.<.<.<.<.<.<.<.4.5.-.) Z 6 . < r r r r r r r r r r r r r r r ",
"r r r r r r r r r r r r r r r : . 5 D { 1.r.e.9.8.8.8.8.8.8.8.8.8.8.8.8.8.8.8.8.9.e.t.2.{ D 5 . : r r r r r r r r r r r r r r r ",
"r r r r r r r r r r r r r r r , . 6 S ] ,.w.0.5.5.5.5.5.5.5.5.5.5.5.5.5.5.5.5.5.5.0.w.,.] S 6 . , r r r r r r r r r r r r r r r ",
"r r r r r r r r r r r r r r r < . 6 Z _ :.8.6.1.1.1.1.1.1.1.1.1.1.1.1.1.1.1.1.1.1.5.8.:._ Z 6 . , r r r r r r r r r r r r r r r ",
"r r r r r r r r r r r r r r r , . 6 A ' :.0.6.2.2.2.2.2.2.2.2.2.2.2.2.1.1.1.1.1.1.5.8.:._ Z 6 . , r r r r r r r r r r r r r r r ",
"r r r r r r r r r r r r r r r > . 6 S [ 1.e.w.7.6.6.6.6.6.6.6.6.6.6.5.3.1.1.1.1.1.5.8.:._ Z 6 . , r r r r r r r r r r r r r r r ",
"r r r r r r r r r r r r r r r > . 6 S [ 1.e.w.7.6.6.6.6.6.6.6.6.7.6.5.3.1.1.1.1.1.5.8.:._ Z 6 . , r r r r r r r r r r r r r r r ",
"r r r r r r r r r r r r r r r 2 o 7 V ^ #.>.;.*.*.*.*.*.*.*.*.&.%.*.-.>.<.2.1.1.1.5.8.:._ Z 6 . , r r r r r r r r r r r r r r r ",
"r r r r r r r r r r r r r r r 7 = q c J W ( / ^ ^ ^ ^ ~ ! W E T U R _ @.,.4.4.1.1.5.8.:._ Z 6 . , r r r r r r r r r r r r r r r ",
"r r r r r r r r r r r r r r r w 8 e d z n B N M m M M m v x l f p k H [ :.6.5.1.1.5.8.:._ Z 6 . , r r r r r r r r r r r r r r r ",
"r r r r r r r r r r r r r r r r t r 0 1 = $ % * & $ # - 5 t i w o t S ` :.8.5.1.1.5.8.:._ Z 6 . , r r r r r r r r r r r r r r r ",
"r r r r r r r r r r r r r r r t y r 6 * o . . X X .   % h V G H S F E ..>.5.4.1.1.5.8.:._ Z 6 . , r r r r r r r r r r r r r r r ",
"r r r r r r r r r r r r r r r r t r w 9 5 4 4 5 3 o . a D ^ X.O.....+.=.<.2.2.1.1.5.8.:._ Z 6 . , r r r r r r r r r r r r r r r ",
"r r r r r r r r r r r r r r r r r r r r r r r r w O . g P o.4.0.5.2.2.1.1.1.1.1.1.5.8.:._ Z 6 . , r r r r r r r r r r r r r r r ",
"r r r r r r r r r r r r r r r r r r r r r r r r w o . h Y $.w.y.e.q.8.5.1.<.1.1.1.5.8.:._ Z 6 . , r r r r r r r r r r r r r r r ",
"r r r r r r r r r r r r r r r r r r r r r r r r w o . h Y $.w.y.e.q.8.5.1.<.1.1.1.5.8.:._ Z 6 . , r r r r r r r r r r r r r r r ",
"r r r r r r r r r r r r r r r r r r r r r r r r w O . g P o.4.0.5.2.2.1.1.1.1.1.1.5.8.:._ Z 6 . , r r r r r r r r r r r r r r r ",
"r r r r r r r r r r r r r r r r t r w 9 5 4 4 5 2 o . a D ^ X.O.....+.=.<.2.2.1.1.5.8.:._ Z 6 . , r r r r r r r r r r r r r r r ",
"r r r r r r r r r r r r r r r t y r 6 * o . . X X .   % h V G H S F E ..>.5.4.1.1.5.8.:._ Z 6 . , r r r r r r r r r r r r r r r ",
"r r r r r r r r r r r r r r r t t r 0 1 = $ % & & $ @ - 5 t i w o t S ` :.8.5.1.1.5.8.:._ Z 6 . , r r r r r r r r r r r r r r r ",
"r r r r r r r r r r r r r r r w 8 e s z b N N m m M M m v x l f p k H [ :.6.5.1.1.5.8.:._ Z 6 . , r r r r r r r r r r r r r r r ",
"r r r r r r r r r r r r r r r 7 = q c J Q ( / ^ ^ ^ ^ ~ ! W E T U R _ @.,.4.4.1.1.5.8.:._ Z 6 . , r r r r r r r r r r r r r r r ",
"r r r r r r r r r r r r r r r 2 o 7 V ^ #.>.;.*.*.*.*.*.*.*.*.&.%.*.-.>.<.2.1.1.1.5.8.:._ Z 6 . , r r r r r r r r r r r r r r r ",
"r r r r r r r r r r r r r r r > . 6 S [ 1.e.w.7.6.6.6.6.6.6.6.6.6.6.5.3.1.1.1.1.1.5.8.:._ Z 6 . , r r r r r r r r r r r r r r r ",
"r r r r r r r r r r r r r r r > . 6 S [ 1.e.w.7.6.6.6.6.6.6.6.6.7.6.5.3.1.1.1.1.1.5.8.:._ Z 6 . , r r r r r r r r r r r r r r r ",
"r r r r r r r r r r r r r r r , . 6 A ` :.0.6.2.2.2.2.2.2.2.2.2.2.2.1.1.1.1.1.1.1.5.8.:._ Z 6 . , r r r r r r r r r r r r r r r ",
"r r r r r r r r r r r r r r r < . 6 Z _ :.8.6.1.1.1.1.1.1.1.1.1.1.1.1.1.1.1.1.1.1.5.8.:._ Z 6 . , r r r r r r r r r r r r r r r ",
"r r r r r r r r r r r r r r r , . 6 S ] ,.w.0.5.5.5.5.5.5.5.5.5.5.5.5.5.5.5.5.5.5.0.w.,.] S 6 . , r r r r r r r r r r r r r r r ",
"r r r r r r r r r r r r r r r : . 5 D { 2.r.e.9.8.8.8.8.8.8.8.8.8.8.8.8.8.8.8.8.9.e.t.2.{ D 5 . : r r r r r r r r r r r r r r r ",
"r r r r r r r r r r r r r r r < . 6 C ) -.5.4.<.<.<.<.<.<.<.<.<.<.<.<.<.<.<.<.<.<.4.5.-.) Z 6 . < r r r r r r r r r r r r r r r ",
"r r r r r r r r r r r r r r r 5 + 9 b I ] .. .| } } } } } } } } } } } } } } } } |  ...] I b 9 + 4 r r r r r r r r r r r r r r r ",
"r r r r r r r r r r r r r r r q 3 w j N F L K H G G G G G G G G G G G G G G G G H K L F N j w 3 q r r r r r r r r r r r r r r r ",
"r r r r r r r r r r r r r r r r e r y u i p p i i i i i i i i i i i i i i i i i i p p i u y r e r r r r r r r r r r r r r r r r ",
"r r r r r r r r r r r r r r r t y t 5 % X . . . . . . . . . . . . . . . . . . . . . . X % 5 t y t r r r r r r r r r r r r r r r ",
"r r r r r r r r r r r r r r r r t r q 2 ; & * = = = = = = = = = = = = = = = = = = * & ; 2 q r t r r r r r r r r r r r r r r r r ",
"r r r r r r r r r r r r r r r r r r r r r e e e e e e e e e e e e e e e e e e e e e e r r r r r r r r r r r r r r r r r r r r r ",
"r r r r r r r r r r r r r r r r r r r r r r r r r r r r r r r r r r r r r r r r r r r r r r r r r r r r r r r r r r r r r r r r ",
"r r r r r r r r r r r r r r r r r r r r r r r r r r r r r r r r r r r r r r r r r r r r r r r r r r r r r r r r r r r r r r r r ",
"r r r r r r r r r r r r r r r r r r r r r r r r r r r r r r r r r r r r r r r r r r r r r r r r r r r r r r r r r r r r r r r r ",
"r r r r r r r r r r r r r r r r r r r r r r r r r r r r r r r r r r r r r r r r r r r r r r r r r r r r r r r r r r r r r r r r ",
"r r r r r r r r r r r r r r r r r r r r r r r r r r r r r r r r r r r r r r r r r r r r r r r r r r r r r r r r r r r r r r r r ",
"r r r r r r r r r r r r r r r r r r r r r r r r r r r r r r r r r r r r r r r r r r r r r r r r r r r r r r r r r r r r r r r r ",
"r r r r r r r r r r r r r r r r r r r r r r r r r r r r r r r r r r r r r r r r r r r r r r r r r r r r r r r r r r r r r r r r ",
"r r r r r r r r r r r r r r r r r r r r r r r r r r r r r r r r r r r r r r r r r r r r r r r r r r r r r r r r r r r r r r r r ",
"r r r r r r r r r r r r r r r r r r r r r r r r r r r r r r r r r r r r r r r r r r r r r r r r r r r r r r r r r r r r r r r r ",
"r r r r r r r r r r r r r r r r r r r r r r r r r r r r r r r r r r r r r r r r r r r r r r r r r r r r r r r r r r r r r r r r ",
"r r r r r r r r r r r r r r r r r r r r r r r r r r r r r r r r r r r r r r r r r r r r r r r r r r r r r r r r r r r r r r r r "
};
