/* XPM */
static char *ed3fa00f144f4200aa17cacd1a2df89aKJAxecHuqkEVeMa7[] = {
/* columns rows colors chars-per-pixel */
"32 32 178 2 ",
"   c #1C2E4D",
".  c #1D3454",
"X  c #1F3A59",
"o  c #233655",
"O  c #2C3B55",
"+  c #2E415D",
"@  c #32465E",
"#  c #2A4D6A",
"$  c #344761",
"%  c #354B65",
"&  c #384D66",
"*  c #304D68",
"=  c #36536D",
"-  c #3A536C",
";  c #2E5873",
":  c #335671",
">  c #365A73",
",  c #3A5C75",
"<  c #36647C",
"1  c #3C657D",
"2  c #504656",
"3  c #51485C",
"4  c #5D535D",
"5  c #434F65",
"6  c #445267",
"7  c #43556B",
"8  c #42596E",
"9  c #4C5C6B",
"0  c #505E6F",
"q  c #405770",
"w  c #445D72",
"e  c #4A5A71",
"r  c #4D6174",
"t  c #43657B",
"y  c #4D647A",
"u  c #4D697D",
"i  c #556575",
"p  c #596775",
"a  c #566877",
"s  c #54677A",
"d  c #556C7C",
"f  c #5B6B7A",
"g  c #686467",
"h  c #63717D",
"j  c #6A757E",
"k  c #787774",
"l  c #777875",
"z  c #70777C",
"x  c #727A7E",
"c  c #877868",
"v  c #837D70",
"b  c #887F72",
"n  c #908069",
"m  c #948670",
"M  c #978C77",
"N  c #998B71",
"B  c #948C7C",
"V  c #9E9177",
"C  c #386A82",
"Z  c #426B82",
"A  c #4E6C81",
"S  c #4E7287",
"D  c #527384",
"F  c #597385",
"G  c #5F7986",
"H  c #5A7588",
"J  c #54798D",
"K  c #5B7B8A",
"L  c #587E90",
"P  c #627482",
"I  c #687781",
"U  c #647983",
"Y  c #647B8A",
"T  c #6B7E88",
"R  c #747E83",
"E  c #6D8487",
"W  c #748185",
"Q  c #7B8485",
"!  c #74848B",
"~  c #7D8A8E",
"^  c #6E8490",
"/  c #738B93",
"(  c #6D9096",
")  c #7D9495",
"_  c #868A84",
"`  c #838C8B",
"'  c #968D85",
"]  c #81918E",
"[  c #8C938E",
"{  c #9A9286",
"}  c #95998D",
"|  c #879291",
" . c #8C9592",
".. c #8D9994",
"X. c #89979A",
"o. c #839A9A",
"O. c #8D9B9A",
"+. c #919792",
"@. c #949D95",
"#. c #9B9D91",
"$. c #A69B86",
"%. c #8EA39C",
"&. c #8DA89F",
"*. c #97A196",
"=. c #9DA094",
"-. c #91A49C",
";. c #9BA499",
":. c #95AA9E",
">. c #9CAB9F",
",. c #A5A28D",
"<. c #B5A787",
"1. c #A2A295",
"2. c #ABA491",
"3. c #ACAA96",
"4. c #A3AB9E",
"5. c #ABAD9D",
"6. c #B4AB92",
"7. c #ABB39F",
"8. c #B3B19D",
"9. c #83A2A2",
"0. c #8DA7A2",
"q. c #95ABA1",
"w. c #9BAEA2",
"e. c #9CB1A3",
"r. c #A2ADA1",
"t. c #ADAEA0",
"y. c #A4B3A3",
"u. c #ABB4A4",
"i. c #ADB9A6",
"p. c #A7B5AA",
"a. c #ABB5A8",
"s. c #A7B8AB",
"d. c #ADBAA9",
"f. c #B3B6A5",
"g. c #BBB7A0",
"h. c #B2B9A6",
"j. c #BCBAA4",
"k. c #B4BCAA",
"l. c #BABEAA",
"z. c #C3BA9D",
"x. c #C4B7A0",
"c. c #C2BDA4",
"v. c #C8BFA2",
"b. c #C0BFA9",
"n. c #B7C2AD",
"m. c #BCC2AD",
"M. c #BDC5B1",
"N. c #C5C1A6",
"B. c #CDC4A6",
"V. c #C4C3AC",
"C. c #CDC6A9",
"Z. c #C7C9AF",
"A. c #CEC9AB",
"S. c #D0C5A6",
"D. c #D2C9A6",
"F. c #D0C6A9",
"G. c #D0CAA9",
"H. c #D2CAAB",
"J. c #D1C9AD",
"K. c #D1CBAC",
"L. c #C2C7B2",
"P. c #C5C9B2",
"I. c #CACBB2",
"U. c #D2CDB1",
"Y. c #D3CEB1",
"T. c #CFD2B9",
"R. c #D6D1B2",
"E. c #D4D2B6",
"W. c #D8D3B5",
"Q. c #DCD5B6",
"!. c #DCD6B7",
"~. c #D5D4B9",
"^. c #D9D6B8",
"/. c #DBD6B8",
"(. c #D9D6BA",
"). c #DDD7B8",
"_. c #DDDABD",
"`. c #DEDDC0",
/* pixels */
"B.S.S.S.S.D.B.D.B.v.N.Y.Y.C.B.D.D.B.B.B.H.F.v.v.F.F.J.F.F.F.v.F.",
"D.S.S.D.D.D.B.H.R.E.!.^.Y.m.m.A.A.B.S.B.v.F.F.F.F.v.v.v.v.F.F.F.",
"D.D.D.S.A.W.Q.Q.!.!.).Z.7.7.e.m.Z.A.B.B.v.F.v.J.F.F.F.F.H.v.F.F.",
"D.B.H.R.Q.Q.Q.Q.^.Z.V.h.n.m.Z.i.e.n.A.N.H.v.J.v.F.F.J.F.H.H.F.H.",
"C.R.!.).!.Z.Z.Z.m.u.r.&.q.k.l.u.:.u.f.8.v.F.F.F.F.H.H.H.R.H.H.H.",
"Q.(.).!.Z.7.-.4.y.i...E @.d.k.d.i.u.u.V.v.F.J.v.F.F.H.H.H.v.F.F.",
"Q.Q.(.Z.7.y.} p j 4.W O 6 ;.L.n.p.n.y.f.x.v.F.Y.H.H.H.H.H.H.H.H.",
"!.!.K.h.;.} [ 9 % 0 9 O @ j r.k.i.k.I.V.V.J.v.v.F.H.H.H.F.F.H.H.",
"!.^.} x I f 7 @ o   .     e @.t.u.d.h.u.I.Z.r.#.g.J.J.H.A.K.K.A.",
"!.^.} w # - @ 8 $ % .   . . @ j @.l.i.p.u.y.m.g.V.v.J.J.D.K.J.H.",
"!.(.m.f = = w - & & o + o   . R y.y.u.w.f.m.l.k.b.1.V.J.K.K.H.J.",
"_.(.!.V.f.@.T w e $ - , 5 5 a z t.u.u.f.m.M.m.m.b.c.v.Y.R.K.K.J.",
"_._.R.I.E.h. .e s & e 8 + u [ j.Z.N.i.l.V.n.m.r.l.K.K.Y.A.A.K.J.",
"~.!.Z.>.L.P. .Q | f y   + h b.Y.J.J.V.V.B.V.n.w.l.j.K.K.K.R.K.K.",
"M.k.m.&.w.k.k.h.@.R y $ % Q Y.Y.H.Y.A.A.Y.V.h.u.c.C.K.K.K.K.J.J.",
"m.y.u.:.u.y.:.q.l.a.X.P y  .Y.Y.Y.J.Y.Y.Y.C.g.g.j.J.K.K.K.J.H.H.",
"f.k.` x _ R [ p.m.u.U s * 5.J.Y.A.K.K.R.R.H.H.H.K.K.K.K.K.H.H.A.",
"0.u.4.R R f f ` w.X.w = # 5.H.J.K.K.K.K.A.H.R.A.K.K.K.J.H.H.H.G.",
"y.P.u.w.w.R , w d U = , :  .J.J.G.H.H.H.A.H.K.J.K.J.H.A.H.B.B.D.",
";.5.l.u.O.O.P = t D < D ^ X.C.F.A.H.K.K.A.H.A.J.A.J.A.H.H.B.H.D.",
" .r *.w.` ^ Z C S T J ^ Z H g.J.A.B.H.A.A.A.A.A.A.C.C.A.D.D.A.D.",
"Y u Y ..R H J S O.I.k.o.F A X.V.A.H.H.C.B.A.A.K.B.C.B.C.C.A.A.C.",
"J < = Z Y G K / V.`.`.~.E. .H r.C.A.H.C.C.C.C.B.B.C.B.C.B.A.C.A.",
"C Z > ; Z Y ` l._._._.`.`.I.` ~ N.C.C.C.C.B.B.N.B.N.B.B.A.A.A.C.",
"I A t < 1 R l.!.^.^.I._._._.f.I ;.B.C.B.B.v.v.c.N.N.N.B.N.N.C.B.",
"V n k ! @.Z._.`._.T.n.E._._.P.w.+.1.j.j.j.j.g.g.8.j.c.c.V.C.8.j.",
"n $.z.Y.~.`._.`.E.i.Z._.`.`.`.k.m.l.h.$.{ ' ' ' { { 2.V.Q.R.c.B ",
"#.m.Q.Q.^.W.T.E.V.u.y.T.~.`.^.T.h.l.u.@.g 2 3 4 c c 8.7.V.V.Z.8.",
"n.P.^.Q.W.l.h.P.m.u.e.p.k.L.k.P.I.j.k.d.w.l 5 e x M <.{ #.8.1.j.",
"e.:.n.Z.I.l.f.r.w.:.y.u.q.-.Q r.P.P.r.k.u.l.f.-.d i l M ,.2.6.6.",
"4.0.e.y.%.:.w.-.a.m.r.0.0.) v | u.Z.#.W %./ o.( 9.y.u.#.#.,.3.8.",
"%.i.y.k.m.u.q.y.P.Y.l.d.k.P b N #.1.V._ T K G D K 9.s.L.d.s.M.V."
};
