/* XPM */
static char *b8cba9e180dc4f9bf033fa559782a74f8YCCSCliMe89VjS2[] = {
/* columns rows colors chars-per-pixel */
"20 20 6 1 ",
"  c None",
". c gray10",
"X c gray46",
"o c #FFEB3B",
"O c #361BFD",
"+ c white",
/* pixels */
"                    ",
"       oooooo       ",
"      oooXXooo      ",
"     oooX++Xooo     ",
"     ..X+..+X..     ",
"     ..X+..+X..     ",
"     oooX++Xooo     ",
"     ooooXXoooo     ",
"     oo.oooo.oo     ",
"     ooo....ooo     ",
"     oooooooooo     ",
"     OooooooooO     ",
"     oOOOOOOOOo     ",
"     ooOOOOOOoo     ",
"     o OOOOOO o     ",
"     oOOOOOOOOo     ",
"    ..OOOOOOOO..    ",
"     .OOOOOOOO.     ",
"       ..  ..       ",
"      ...  ...      "
};
