/* XPM */
static char *result[] = {
/* columns rows colors chars-per-pixel */
"64 64 184 2 ",
"   c #002121",
".  c #012121",
"X  c #022121",
"o  c #002222",
"O  c #002323",
"+  c #052121",
"@  c #062121",
"#  c #072121",
"$  c #002424",
"%  c #082121",
"&  c #092121",
"*  c #0A2121",
"=  c #0B2121",
"-  c #0C2121",
";  c #0E2121",
":  c #0F2121",
">  c #102121",
",  c #132121",
"<  c #142121",
"1  c #152121",
"2  c #162121",
"3  c #172121",
"4  c #182121",
"5  c #192121",
"6  c #1B2121",
"7  c #1C2121",
"8  c #1D2121",
"9  c #1E2121",
"0  c #1F2121",
"q  c #202121",
"w  c gray13",
"e  c #222121",
"r  c #232121",
"t  c #242121",
"y  c #252121",
"u  c #262121",
"i  c #292121",
"p  c #2A2121",
"a  c #2C2121",
"s  c #2E2121",
"d  c #2F2121",
"f  c #302121",
"g  c #312121",
"h  c #322020",
"j  c #372020",
"k  c #382020",
"l  c #3A2020",
"z  c #3B2020",
"x  c #3C2020",
"c  c #491F1F",
"v  c #4A1F1F",
"b  c #4C1F1F",
"n  c #4D1F1F",
"m  c #4E1F1F",
"M  c #501F1F",
"N  c #511F1F",
"B  c #531F1F",
"V  c #541F1F",
"C  c #561F1F",
"Z  c #571F1F",
"A  c #581E1E",
"S  c #5A1E1E",
"D  c #5C1E1E",
"F  c #5D1E1E",
"G  c #631D1D",
"H  c #601E1E",
"J  c #611E1E",
"K  c #631E1E",
"L  c #641D1D",
"P  c #651D1D",
"I  c #671D1D",
"U  c #681D1D",
"Y  c #691D1D",
"T  c #6A1D1D",
"R  c #6E1C1C",
"E  c #6F1C1C",
"W  c #771B1B",
"Q  c #711C1C",
"!  c #731C1C",
"~  c #741C1C",
"^  c #751C1C",
"/  c #761C1C",
"(  c #781B1B",
")  c #791B1B",
"_  c #7C1B1B",
"`  c #7E1A1A",
"'  c #7E1B1B",
"]  c #432020",
"[  c #811A1A",
"{  c #821A1A",
"}  c #831A1A",
"|  c #861919",
" . c #841A1A",
".. c #851A1A",
"X. c #891919",
"o. c #8A1919",
"O. c #8C1818",
"+. c #8D1818",
"@. c #8C1919",
"#. c #921717",
"$. c #941717",
"%. c #951717",
"&. c #961717",
"*. c #971717",
"=. c #991616",
"-. c #9A1616",
";. c #9B1616",
":. c #9C1515",
">. c #9D1515",
",. c #9E1515",
"<. c #9F1515",
"1. c #9C1616",
"2. c #901818",
"3. c #911818",
"4. c #921818",
"5. c #B40F0F",
"6. c #B50F0F",
"7. c #B60E0E",
"8. c #BE0B0B",
"9. c #BF0B0B",
"0. c #BA0D0D",
"q. c #BB0D0D",
"w. c #B80E0E",
"e. c #B90E0E",
"r. c #BC0C0C",
"t. c #BD0C0C",
"y. c #A61313",
"u. c #A71313",
"i. c #A11414",
"p. c #A01515",
"a. c #A21414",
"s. c #A31414",
"d. c #A41414",
"f. c #A51414",
"g. c #A81313",
"h. c #AA1212",
"j. c #AD1111",
"k. c #AF1111",
"l. c #AC1212",
"z. c #B01010",
"x. c #B11010",
"c. c #B21010",
"v. c #C60707",
"b. c #C70707",
"n. c #CE0303",
"m. c #CF0303",
"M. c #CB0505",
"N. c #C90606",
"B. c #C80707",
"V. c #CA0606",
"C. c #CC0404",
"Z. c #CD0404",
"A. c #CC0505",
"S. c #CE0404",
"D. c #C20909",
"F. c #C30909",
"G. c #C10A0A",
"H. c #C00B0B",
"J. c #C20A0A",
"K. c #C50808",
"L. c #D20101",
"P. c #D30101",
"I. c #D00202",
"U. c #D10202",
"Y. c #D00303",
"T. c #D20202",
"R. c #D40000",
"E. c #D50000",
"W. c #D40101",
"Q. c #D60000",
"!. c #D70000",
"~. c #D80000",
"^. c #D90000",
"/. c #DA0000",
"(. c #DB0000",
"). c #DC0000",
"_. c #DD0000",
"`. c #DE0000",
"'. c #DF0000",
"]. c #E00000",
"[. c #E10000",
"{. c #E20000",
"}. c #E30000",
"|. c #E40000",
/* pixels */
"w w w w w w w w w w w w w w w w w w w w w w w w w w w w w w w w w w w w w w w w w w w w w w w w w w w w w w w w w w w w w w w w ",
"w w w w w w w w w w w w w w w w w w w w w w w w w w w w w w w w w w w w w w w w w w w w w w w w w w w w w w w w w w w w w w w w ",
"w w w w w w w w w w w w w w w w w w w w w w w w w w w w w w w w w w w w w w w w w w w w w w w w w w w w w w w w w w w w w w w w ",
"w w w w w w w w w w w w w w w w w w w w w w w w w w w w w w w w w w w w w w w w w w w w w w w w w w w w w w w w w w w w w w w w ",
"w w w w w w w w w w w w w w w w w w w w w w w w w w w w w w w w w w w w w w w w w w w w w w w w w w w w w w w w w w w w w w w w ",
"w w w w w w w w w w w w w w w w w w w w w w w w w w w w w w w w w w w w w w w w w w w w w w w w w w w w w w w w w w w w w w w w ",
"w w w w w w w w w w w w w w w w w w w w w w w w w w w w w w w w w w w w w w w w w w w w w w w w w w w w w w w w w w w w w w w w ",
"w w w w w w w w w w w w w w w w w w w w w w w w w w w w w w w w w w w w w w w w w w w w w w w w w w w w w w w w w w w w w w w w ",
"w w w w w w w w w w w w w w w w w w w w w w w w w w w w w w w w w w w w w w w w w w w w w w w w w w w w w w w w w w w w w w w w ",
"w w w w w w w w w w w w w w w w w w w w w w w w w w w w w w w w w w w w w w w w w w w w w w w w w w w w w w w w w w w w w w w w ",
"w w w w w w w w w w w w w w w w w w w w w w w w w w w w w w w w w w w w w w w w w w w w w w w w w w w w w w w w w w w w w w w w ",
"w w w w w w w w w w w w w w w w w w w w w w w w w w w w w w w w w w w w w w w w w w w w w w w w w w w w w w w w w w w w w w w w ",
"w w w w w w w w w w w w w w w w w w w w w w w w w w w w w w w w w w w w w w w w w w w w w w w w w w w w w w w w w w w w w w w w ",
"w w w w w w w w w w w w w w w w w w w w w w w w w w w w w w w w w w w w w w w w w w w w w w w w w w w w w w w w w w w w w w w w ",
"w w w w w w w w w w w w w w w w w w w w w w w w w w w w w w w w w w w w w w w w w w w w w w w w w w w w w w w w w w w w w w w w ",
"w w w w w w w w w w w w e r q 3 . o o o o o o o o - 6 e r e w w w w e r e 6 - o o o o o o o o . 3 q r e w w w w w w w w w w w w ",
"w w w w w w w w w w w w t u 0   o O O O O O O O o o > t u r w w w w r u t > o o O O O O O O O o   0 u t w w w w w w w w w w w w ",
"w w w w w w w w w w w w e e w 7 < * @ % & & # # ; 3 9 e e w w w w w w e e 9 3 ; # # & & % @ * < 7 w e e w w w w w w w w w w w w ",
"w w w w w w w w w w w w 2 + y c G ~ ) W ^ ^ ( ( R S x 1 & 7 w e e w 2 o o h Z R ( ( ^ ^ W ) ! G c y + 2 w w w w w w w w w w w w ",
"w w w w w w w w w w w q o o p Y 4.h.c.k.l.j.x.x.a.} V o o , w r u e o O O l _ i.c.x.j.l.k.c.h.4.Y p o o q w w w w w w w w w w w ",
"w w w w w w w w w w w q o o d ' k.Z.Q.L.m.Y.E.R.F.,.G o o @ w e t e o O O A -.D.E.E.Y.m.L.Q.C.k.' d O o 0 w w w w w w w w w w w ",
"w w w w w w w w w w w q o O f | 0./.|.].)._.}.}.Y.g.T o O . w 3   : a k A X.5.L.{.{._.).].|./.q.| g O o 0 w w w w w w w w w w w ",
"w w w w w w w w w w w q o O f ..e.~.{.`./.(.].].S.u.Y o o - q o O O ] / =.5.v.E._._.(./.`.{.~.e...f O o 0 w w w w w w w w w w w ",
"w w w w w w w w w w w q o O f { 6.W._./.Q.!.).).V.s.I o o ; q o O O H >.J.P.E.E.Q.Q.Q.Q./._.P.6.{ f O o 0 w w w w w w w w w w w ",
"w w w w w w w w w w w q o O d [ 5.P._.^.E.Q.(.(.N.s.I o O o 9 t r N o.w.Q.[._.Q.E.E.E.E.^.).P.5.[ f O o 0 w w w w w w w w w w w ",
"w w w w w w w w w w w q o O d [ 5.P._.^.E.Q.(.(.N.s.U o O O o v ~ %.c.B.~.`.(.Q.E.E.E.E.^.).P.5.[ f O o 0 w w w w w w w w w w w ",
"w w w w w w w w w w w q o O d [ 5.P._.^.E.Q.(.(.N.s.U o $ $ o U <.G.Y.P.E.!.!.E.E.E.E.E.^.).P.5.[ f O o 0 w w w w w w w w w w w ",
"w w w w w w w w w w w q o O d [ 5.P._.^.E.Q.(.(.N.a.P o O o n +.q.~.].(.E.E.E.E.E.E.E.E.^.).P.5.[ f O o 0 w w w w w w w w w w w ",
"w w w w w w w w w w w q o O d [ 5.P._.^.E.Q.(.(.B.:.B o i T 3.z.N.(.'./.E.R.E.E.E.E.E.E.^.).P.5.[ f O o 0 w w w w w w w w w w w ",
"w w w w w w w w w w w q o O d [ 5.P._.^.E.Q.).).B.*.x O F >.8.A.T.Q.^.!.E.E.E.E.E.E.E.E.^.).P.5.[ f O o 0 w w w w w w w w w w w ",
"w w w w w w w w w w w q o O d [ 5.P._.^.E.Q.(.(.N.:.C l  .r.~.`.~.E.E.E.E.E.E.E.E.E.E.E.^.).P.5.[ f O o 0 w w w w w w w w w w w ",
"w w w w w w w w w w w q o O d [ 5.P._.^.E.Q.^.^.Z.k.O...y.V.`.].^.E.E.!.~.~.!.E.E.E.E.E.^.).P.5.[ f O o 0 w w w w w w w w w w w ",
"w w w w w w w w w w w q o O d [ 5.P._.^.E.E.!.!.U.K.w.6.G.m.~.^.Q.E.!./.).).^.Q.R.R.E.E.^.).P.5.[ f O o 0 w w w w w w w w w w w ",
"w w w w w w w w w w w q o O d [ 5.P._.^.E.E.E.E.E.W.P.P.W.R.E.E.E.E.E.Q.!.!.Q.E.E.E.E.E.^.).P.5.[ f O o 0 w w w w w w w w w w w ",
"w w w w w w w w w w w q o O d [ 5.P._.^.E.E.R.R.Q.^.).)./.!.E.Q.~.!.I.K.t.9.B.T.!.Q.E.E.^.).P.5.[ f O o 0 w w w w w w w w w w w ",
"w w w w w w w w w w w q o O d [ 5.P._.^.E.E.E.E.E.!.^.^.!.E.E.^.'._.M.l.2.&.5.Z.^.^.Q.E.^.).P.5.[ f O o 0 w w w w w w w w w w w ",
"w w w w w w w w w w w q o O d [ 5.P._.^.E.E.E.E.E.E.E.E.E.E.E.^.'.(.H.@.n J <.N.(.(.Q.E.^.).P.5.[ f O o 0 w w w w w w w w w w w ",
"w w w w w w w w w w w q o O d [ 5.P._.^.E.E.E.E.E.E.E.E.Q.!.Q.P.U.K.f.P o x &.B.).).Q.E.^.).P.5.[ f O o 0 w w w w w w w w w w w ",
"w w w w w w w w w w w q o O d [ 5.P._.^.E.E.E.E.E.E.R.E./.`./.M.7.1.W j o m ;.B.(.(.Q.E.^.).P.5.[ f O o 0 w w w w w w w w w w w ",
"w w w w w w w w w w w q o O d [ 5.P._.^.E.E.E.E.E.E.R.Q.(.[.^.9.$.F 1 o o K i.N.(.(.Q.E.^.).P.5.[ f O o 0 w w w w w w w w w w w ",
"w w w w w w w w w w w q o O f { 6.P._./.Q.E.E.E.Q.Q.Q.E.E.W.b.y.E o $ $ o U s.V.).).!.Q./._.P.6.{ f O o 0 w w w w w w w w w w w ",
"w w w w w w w w w w w q o O f ..e.~.{.`./././././._.`.!.V.w.p.` M o O $ o T u.S.[.].(./.`.{.~.e...f O o 0 w w w w w w w w w w w ",
"w w w w w w w w w w w q o O f | 0./.|.].).).).)._.[.{.!.q.#.J x s 4 o O o T g.Y.}.}._.).].|./.0.| f O o 0 w w w w w w w w w w w ",
"w w w w w w w w w w w q o o d ' k.C.Q.L.m.n.n.n.m.W.Q.B.d.U o O o q ; o o L ,.F.R.R.Y.m.L.Q.C.k.' d O o 0 w w w w w w w w w w w ",
"w w w w w w w w w w w q o o p Y 4.h.c.k.l.l.l.l.l.x.c.y...b O O o 0 6 o o V } a.x.x.j.l.k.c.h.4.Y p o o q w w w w w w w w w w w ",
"w w w w w w w w w w w w 2 + y c G ! ) W ^ ^ ^ ^ ^ ( ) Q D z o o : w 9 = 1 x S R ( ( ^ ^ W ) ! G c y + 2 w w w w w w w w w w w w ",
"w w w w w w w w w w w w e e w 7 < * @ % * * * * & # @ - 1 8 w e w w w e e 9 3 ; # # & * % @ * < 7 w e e w w w w w w w w w w w w ",
"w w w w w w w w w w w w t u 0   o O O O O O O O O O O o o @ e u r w r u t > o o O O O O O O O o   0 u t w w w w w w w w w w w w ",
"w w w w w w w w w w w w e r q 3 X o o o o o o o o o o o # 5 e r e w e r e 6 - o o o o o o o o X 3 q r e w w w w w w w w w w w w ",
"w w w w w w w w w w w w w w w w w w w w w w w w w w w w w w w w w w w w w w w w w w w w w w w w w w w w w w w w w w w w w w w w ",
"w w w w w w w w w w w w w w w w w w w w w w w w w w w w w w w w w w w w w w w w w w w w w w w w w w w w w w w w w w w w w w w w ",
"w w w w w w w w w w w w w w w w w w w w w w w w w w w w w w w w w w w w w w w w w w w w w w w w w w w w w w w w w w w w w w w w ",
"w w w w w w w w w w w w w w w w w w w w w w w w w w w w w w w w w w w w w w w w w w w w w w w w w w w w w w w w w w w w w w w w ",
"w w w w w w w w w w w w w w w w w w w w w w w w w w w w w w w w w w w w w w w w w w w w w w w w w w w w w w w w w w w w w w w w ",
"w w w w w w w w w w w w w w w w w w w w w w w w w w w w w w w w w w w w w w w w w w w w w w w w w w w w w w w w w w w w w w w w ",
"w w w w w w w w w w w w w w w w w w w w w w w w w w w w w w w w w w w w w w w w w w w w w w w w w w w w w w w w w w w w w w w w ",
"w w w w w w w w w w w w w w w w w w w w w w w w w w w w w w w w w w w w w w w w w w w w w w w w w w w w w w w w w w w w w w w w ",
"w w w w w w w w w w w w w w w w w w w w w w w w w w w w w w w w w w w w w w w w w w w w w w w w w w w w w w w w w w w w w w w w ",
"w w w w w w w w w w w w w w w w w w w w w w w w w w w w w w w w w w w w w w w w w w w w w w w w w w w w w w w w w w w w w w w w ",
"w w w w w w w w w w w w w w w w w w w w w w w w w w w w w w w w w w w w w w w w w w w w w w w w w w w w w w w w w w w w w w w w ",
"w w w w w w w w w w w w w w w w w w w w w w w w w w w w w w w w w w w w w w w w w w w w w w w w w w w w w w w w w w w w w w w w ",
"w w w w w w w w w w w w w w w w w w w w w w w w w w w w w w w w w w w w w w w w w w w w w w w w w w w w w w w w w w w w w w w w ",
"w w w w w w w w w w w w w w w w w w w w w w w w w w w w w w w w w w w w w w w w w w w w w w w w w w w w w w w w w w w w w w w w ",
"w w w w w w w w w w w w w w w w w w w w w w w w w w w w w w w w w w w w w w w w w w w w w w w w w w w w w w w w w w w w w w w w "
};
