/* XPM */
static char *_4b41cffde774072c132678cdc57edb1dydALr10VOFRe3X9[] = {
/* columns rows colors chars-per-pixel */
"64 64 103 2 ",
"   c #4C4D4E",
".  c #4E4F50",
"X  c #4F5151",
"o  c #535555",
"O  c #565758",
"+  c #565858",
"@  c #5A5C5C",
"#  c #5E5F60",
"$  c #5F6060",
"%  c #636364",
"&  c #666867",
"*  c #666768",
"=  c #676868",
"-  c #6A6B6B",
";  c #6E706F",
":  c #6F6F70",
">  c #6F7170",
",  c #727474",
"<  c #767877",
"1  c #777778",
"2  c #767878",
"3  c #7A7C7C",
"4  c #7D807F",
"5  c #7E8181",
"6  c #828484",
"7  c #858686",
"8  c #868888",
"9  c #868988",
"0  c #878988",
"q  c #878989",
"w  c #888888",
"e  c #898989",
"r  c #898A8A",
"t  c gray54",
"y  c #8A8B8B",
"u  c #8B8B8B",
"i  c #8D8D8B",
"p  c #8B8C8C",
"a  c #8C8D8D",
"s  c #8F8F8D",
"d  c #8D8E8E",
"f  c #8E8E8E",
"g  c #908F8E",
"h  c #8F908F",
"j  c #90908E",
"k  c #91918F",
"l  c #8F9090",
"z  c #909191",
"x  c #919290",
"c  c #939291",
"v  c #939391",
"b  c #939292",
"n  c #959393",
"m  c #959494",
"M  c #949594",
"N  c #969494",
"B  c #959797",
"V  c #979696",
"C  c #989897",
"Z  c #969898",
"A  c #969999",
"S  c #979999",
"D  c #989A9A",
"F  c #999B9B",
"G  c #999C9C",
"H  c #9A9C9C",
"J  c #9B9C9C",
"K  c #9C9D9C",
"L  c #9C9D9D",
"P  c #9D9E9D",
"I  c #9C9E9E",
"U  c #9FA09F",
"Y  c #9FA0A0",
"T  c #A0A0A0",
"R  c #A0A1A0",
"E  c #A1A2A1",
"W  c #A3A2A2",
"Q  c #A2A3A3",
"!  c #A3A4A3",
"~  c #A4A5A5",
"^  c #A5A6A6",
"/  c #A6A7A7",
"(  c #A7A7A7",
")  c #A7A9A9",
"_  c #A9A9A9",
"`  c #A9AAAA",
"'  c #A9ABAB",
"]  c gray67",
"[  c #AAACAC",
"{  c #ABACAC",
"}  c #ACACAC",
"|  c #ACADAD",
" . c #ADAEAE",
".. c #AEAEAE",
"X. c #AFAFAF",
"o. c #AFB0B0",
"O. c gray69",
"+. c #B0B1B1",
"@. c #B1B1B1",
"#. c #B1B2B2",
"$. c #B8B7B7",
"%. c #BCBBBB",
"&. c #C2C1C1",
/* pixels */
"5 5 5 3 * % % % % % % - [ +.+.+.{ ) | _ 7 4 5 5 , , , < ) [ { { ! ! Q K 7 3 6 4 % % % # O o o o O @ @ @ - : : : k k k N ..O.O.O.",
"5 6 6 5 % $ % $ % % $ - | +.+.+.| _ { _ 7 5 7 5 , , > < _ ) ) _ ! U Q U 6 6 6 6 * % % % o o o o O @ @ @ - > - : g c k N ..O.O.O.",
"5 5 5 3 * % % % $ % @ - | +.+.+._ { { _ 7 4 7 5 > > > < ( ' ' ' ! U ! Q 6 4 4 4 % % % # o o o   @ @ @ @ - > - > c N g N #.#.#.#.",
"5 5 6 5 % $ % % = - * > | +.+.+._ _ _ _ 7 4 4 4 2 < , 4 ( ) ) ( ! U ! Y 7 4 6 6 = * * % o o o o @ @ @ @ : : > , g c g N ..O.....",
"u u p u * % $ - Q _ ( _ +.+.O.} k 8 h 8 - - & ; ( ) ) ( 7 7 7 8 ' ' ] / c c u x g g g d % # % % * % % - K U U U 6 6 6 6 7 w 7 7 ",
"u u p 8 * % % - ) [ _ _ | | | } 8 6 8 9 - - $ ; ) [ ) ) 7 4 4 7 / ' ' ] c u z x n c c g * # % % % % @ - W W W U 6 4 6 5 3 5 5 5 ",
"u u u u % @ # - ) ] } } O.O.O.| h 9 u 9 - & - > ) ) { ) 7 4 5 7 ] ] ] ] x l l l n g c g * % % % % % $ - U W W U 6 5 5 6 6 5 5 7 ",
"u u u 7 - * * - Q _ ( ( _ } } _ h 9 9 9 - & $ ; ) [ { ) 7 5 7 7 / / / / z u l d g g g g % % % % $ % $ = K U U U 7 6 6 6 6 6 5 5 ",
"* = % - B F F A 6 5 5 5 7 7 7 7 9 5 5 5 $ + o $ ( | _ _ N c N k 6 6 7 6 6 6 5 5 8 7 8 7 O O # O % % % % = = - - g k k k 9 7 6 6 ",
"% % @ * F I I G 4 3 3 3 5 5 5 5 5 5 5 5 @ + o $ ( | _ _ C N N N 6 5 5 5 5 6 5 7 7 7 7 6 # O O O % % % % % * @ % k k n k 7 6 6 7 ",
"% % % * A I G G 4 3 4 4 8 5 5 5 9 5 5 5 @ + o $ ) { ..( C c B g 6 6 6 5 6 5 6 5 7 9 8 9 # O O O # # # % % % % * k k k k 9 w 7 7 ",
"% % % = B F G A 5 5 5 4 5 5 7 5 5 5 5 5 @ + o $ Q _ _ ( C c B x 6 6 6 6 5 6 5 6 7 6 6 6 # O O # - - = = % % % = i k k k 4 4 9 4 ",
"% $ % % = = = - A G G A 7 5 7 5 , , , > @ + o @ 6 7 7 6 6 6 6 6 l x x g 6 6 6 4 $ @ @ @ @ O O # C W W K = % % % * * * * $ O O @ ",
"% % $ % $ % $ = A Y G G 5 5 5 5 , > , > + + + @ 4 6 5 5 5 6 5 6 x x k z 6 6 6 4 @ O O O O @ O # W ( ( W & $ % % $ % % % O . . o ",
"$ $ % $ % $ $ = G U Y G 8 5 7 5 , , , > @ o + @ 5 7 6 6 6 5 5 6 x x B x 6 6 6 5 @ O O O O O O # W ( W W & $ % % % % & $ o o + o ",
"& * * * = = = - A A G G 5 5 5 5 > > > ; @ o o @ 4 5 5 5 5 6 6 6 l l d d 3 6 3 3 % @ $ $ % @ # % U W W U - % % % % % % $ + o o + ",
"B B C C ( ( ( W % @ # $ @ @ @ @ + @ + + + + + + - - = - 6 6 6 5 + O + O O O + $ Q ) / ( S B S B u w w 6 6 3 7 5 * % % % : : : - ",
"C F C K ] ] | ( $ X o o o + + + + o + + + + + @ & & & = 5 5 5 4 o X X X O O o # ) ] ] / L H L H 6 6 6 6 6 6 6 6 % % % % : : , : ",
"C C C F _ _ ] ( $ o + o o o o o o o o o o o o + * = * - 5 6 6 5 o X X X o o . # / ] ] ] L L I S 7 6 6 6 6 6 6 6 % @ % % ; : : : ",
"K F F F ) _ _ ( $ O @ @ $ $ $ $ $ # # # $ $ $ $ * = * - 4 5 5 3 + X o o # $ # * / ' ] / H H L A 7 7 6 6 6 6 6 6 - * % = : > : : ",
"] ' _ ( 8 6 6 6 , , > < ( _ _ _ U G U U ) _ [ ( = $ % % @ O @ @ $ % # - $.%.%.$.B b n x 7 7 7 7 g g c g 7 6 6 6 g g g i - = = = ",
"' ] ] ( 5 3 5 5 , , , 2 ..O.O.O.! ! ! ! o.o.o.[ - $ % % + + O + % % % - %.&.&.%.n b b b 6 6 5 7 c k c c 7 6 6 7 c c c g - = & - ",
"[ ] | _ 5 5 5 5 , , , < { { O...! Q ! ! o.o.o.[ = $ % % + + + O % % # - %.&.&.%.n x x x 7 6 6 6 c c k N 6 6 6 6 c c c g - - - & ",
"/ ) _ ( 6 5 5 3 , , > < { o.O...Y Y Y U [ [ [ ) - $ = % + + + O % % % - $.%.%.$.n l b b 6 7 6 6 g g k g 7 6 6 7 g g g i - % - % ",
"3 5 3 5 w w u w @ O O % K _ W W u 7 8 7 5 6 6 6 4 4 5 4 % # % # # % % % - - - > 7 7 6 7 g c n l u u u u x k k g - % % % @ @ @ @ ",
"1 1 1 1 w u w 7 @ o O @ K W W K 6 6 6 6 3 3 2 3 6 5 6 4 * % % % % % % % @ $ @ % 4 6 6 6 c g c n u u 7 u x x c i % O $ @ @ @ @ @ ",
"3 1 3 3 w w w u @ + o @ U ! ! U 8 6 7 7 5 5 3 5 6 5 6 4 % # % $ # $ $ % % % % * 6 6 6 6 c c c c u u w u x x k k % % @ $ @ @ @ @ ",
"1 3 1 1 w 7 u 8 @ + O % K I U K 6 5 6 6 1 3 3 1 5 5 5 3 * * * = - - - = % * * = 4 7 4 6 g g g g u w u u g c k i $ @ % @ @ @ @ @ ",
"3 5 3 3 2 3 1 3 , , , , # @ $ @ o o o o . X . . # # O # 8 8 8 d ( ) ) Q 6 6 6 3 % $ % $ = = * * , , < , @ + @ + @ # @ # = & & & ",
"3 3 3 3 1 1 3 1 2 2 < , + O + o                 o X X # 8 d p d _ [ [ _ 7 6 7 6 $ @ # @ $ @ % % , , , : o o o o # @ # # * * & - ",
"3 3 3 3 1 1 1 1 , 2 2 , + o O o                 o O X # u p p d ) _ _ _ 7 6 6 3 # @ @ @ % % % % , , , : o o o O @ # # # & & & & ",
"1 1 3 3 5 4 4 4 2 1 2 < $ $ $ $ X o o X       . # # # * u p p d _ ] ) ) u 7 8 7 % % * % % % % * , < 2 , @ + O @ # # @ % & & & - ",
"% % % - ( _ ( _ ) ) ) ) / ( ( ( 6 5 6 3 % @ @ % W } } ( C C C C _ [ _ [ _ ) _ ( k h k k ; - - ; C A G C u u i u & % $ * $ & $ % ",
"% % $ - ( | _ _ _ { _ ' ' ' { { w 6 7 6 $ @ @ * | O.O.} F C C C _ ] [ ' ] ] ] ) B v k k ; ; ; ; G U G U h k h p - = * & * $ $ % ",
"% % $ - ) _ .._ { { { {  .' [ ) w 5 6 4 $ @ @ * | O...} C C C F _ ' ' ' ' ' [ _ v k v h ; - - ; G U U G k d k i & $ * & $ $ $ % ",
"% % $ - ( { ( _ _ ( ) _ ) ) ) ) w 6 7 6 % @ @ % ( } ] ( C B B A ] [ ' ' [ ' ] ) v h h h ; ; ; , A A A A d u i u ; - > - - - - - ",
"% % % % 6 9 7 7 u i i u 8 5 8 8 g d x d + o o o - - : : < < , 2 ) [ ' ' _ [ [ ( < ; ; > 4 5 5 4 @ + + + & & % ; _ | | [ [ [ [ [ ",
"% $ % % 4 5 4 4 9 9 9 9 7 5 4 5 d g d d + .   o % % % & : , : 1 / ] ) ] [ _ | ( > - - ; 5 5 7 5 X X X X $ % $ - | +.o.+.o.o.+.+.",
"% % % % 5 6 6 6 u w u w 7 5 5 5 d x x d O   o   & & & & , 1 , 1 _ | ] ] | [ ] ) , - ; ; 5 7 5 5 o X o o $ % @ & | o.o.| +.+.+.o.",
"% $ % % 4 4 4 4 9 w u w 5 5 7 7 d u d u O   o O % & & & : 1 : 1 Q / ( ( ) ) _ Q , - ; ; 4 4 4 4 + X X o & - & , | +.o.+.| | [ | ",
"o o o o $ $ @ % 7 d d u 6 4 5 5 O O O O $ % $ $ % % % % = - - * % % % * 5 8 8 5 5 5 5 5 @ o o o # % # * / o.] ] o.o.o.[ d 7 8 u ",
"X o X o @ @ + $ 9 i u u 7 5 5 4 o . X . % % % % % % % % = = * - @ + + @ 5 5 5 5 5 8 5 5 o X X X % % % - o.o.o.o.o.o.+.| 9 6 7 6 ",
"o X o o @ # @ $ u u i i 7 5 7 4 o X o . # % % $ $ $ % $ - - = * # @ @ $ 5 5 5 5 5 5 5 5 o X X X # % # * ] o.o.o.o.+.o.| d 6 7 6 ",
"o o o o @ @ + # 7 u w 9 3 5 5 4 O X o o * = = = - = = & - - - - # @ @ $ 5 5 5 5 5 5 5 5 + X o o = - * : ] o.o.] o.| o.[ 8 6 8 8 ",
"o + o + # % % $ @ @ @ @ # @ # $ $ % $ = A G I T _ { _ { 9 6 6 6 > > > > + + o + & & & & $ $ $ - /  .] ' u u u q B n B n 8 7 8 6 ",
"+ + + + % % % % + + + O @ @ @ @ % % % - Q ( Q ( o.o.o.| 9 6 6 6 2 , 2 > X X X X $ $ $ % % % $ -  .o.o.o.7 6 6 7 n n c c 7 6 7 8 ",
"+ + + + # % % # + O + O @ @ @ O $ % # = I ~ I ( | o.O.{ 7 6 6 6 , > , > o X   X & % % % % % $ - o.o.o.[ u 6 6 w n n c x 8 7 8 7 ",
"+ + + o & & & & @ @ @ @ % @ $ $ % % # - I T T U ..| o.) u 6 9 6 3 2 3 2 @ @ @ @ $ % % $ % % $ - ] +.#.[ u 6 7 6 x B B x 6 6 6 6 ",
"% % $ = C K K K N N N B n N S n % @ O @ 6 7 7 7 Q W W W v k v n _ _ _ _ _ _ _ ! = $ % % % % $ - [ o.o.o.8 7 7 7 7 7 8 6 # # # # ",
"% % % - U W U I C K N L F C S N @ O @ @ 4 3 3 7 U W W U n k h B } O.} O.| | o._ - $ % % % % $ - | o.o.o.q 7 7 7 7 6 6 6 # # O O ",
"$ $ # = K I K F K N L L S H S n @ @ @ @ 4 6 4 7 U ! W W n k k n } O.} } o.[ o._ = $ $ % % % $ - o.o.o.o.q 7 7 7 8 6 8 6 $ @ # O ",
"= = = = I U U F N K N C N N S n % @ @ @ 3 6 3 5 K U Q I k k k n _ } } _ | | _ ( - % & % % % $ - ] [ ] ' 8 7 7 6 7 7 8 6 $ O # O ",
"Y Y I U ( ( ( ( N c z z u u u u w 6 9 w & % % & @ @ + @ & - - - 1 1 3 3 u u 9 u 4 4 4 3 % % % & 5 5 5 5 u q u u 5 5 5 5 O + + + ",
"Q Q W W ( ( ( U k g z b u w u w u w u 9 % % % $   o   . % & % & , , , , 6 6 6 6 5 5 6 5 % % % % 2 4 3 3 q u q u 5 5 5 5 @ o + + ",
"Q W W W ( ( ( ( c c x n w w w u 9 i 9 9 % % % $ . . . o & & & - , 1 1 1 7 7 7 6 5 5 5 3 % % % % 4 4 4 5 u a u u 8 5 5 5 @ + o O ",
"U U I U ( W ( Q c k n x u u w w 9 i 9 8 & % & & O O o + & & % & , , , , 6 6 6 6 6 5 6 4 & $ % % 2 4 2 4 8 q 8 7 5 5 5 5 @ + + + ",
"& & & - k k i k T T W I 7 3 7 6 6 6 6 6 4 4 4 4 4 5 5 3 & $ % % % % % % % * % = 5 7 7 4 = % % % ; ; ; > # @ O # $ @ + @ $ $ = $ ",
"% $ $ % u d i g Q W ( T 7 6 3 6 5 6 4 6 6 6 6 4 6 5 6 5 % % % % % % % % % % % % 4 4 4 4 % $ % % - - ; - + + + + + + + + = = $ > ",
"% % % * d h g g U W W T 7 4 7 6 6 5 4 6 6 4 6 8 6 5 6 5 % $ # $ % $ % % % % $ % 6 6 5 4 = $ % % = ; > - + X o + + + + + $ $ - $ ",
"% * * * u d u d Q U U I 6 6 4 6 6 5 6 7 4 4 4 4 4 4 5 5 - & - - % * % % % % * = 4 4 4 4 % % % % > > > > $ $ $ $ + + + + : = - > ",
"7 7 7 6 @ @ @ @ 3 4 3 4 w w 9 w 6 5 6 4 @ @ @ @ - - & ; ) _ _ ( 7 4 4 5 5 5 5 5 @ @ @ @ * = & ; ) o.[ [ ) ( ) Y - $ $ = 5 5 5 5 ",
"9 7 7 7 + o O + 1 1 1 1 u w w u 6 5 5 5 @ o + + & & & ; _ o.| | 7 5 7 5 5 6 5 5 + o + + = - * ; [ o.o.o.[ [ [ / - $ $ = 5 5 5 u ",
"7 7 7 7 @ o O O 1 1 < 3 w w w u 5 6 6 4 @ o + + & - & ; _ | | _ 7 4 5 6 6 5 6 4 @ O + + = - & ; [ o.o.o.' ' [ ) = $ $ - 5 8 5 8 ",
"8 9 9 7 O O + O 1 3 < 3 w u w w 6 6 5 4 @ O + + & & % : _ | o._ 7 4 6 5 6 5 6 4 @ O + + * - - > o.o.o.o.' ' [ ) - $ $ - 5 5 8 5 "
};
