/* XPM */
static char *result[] = {
/* columns rows colors chars-per-pixel */
"64 64 153 2 ",
"   c #190017",
".  c #1B0019",
"X  c #1C001A",
"o  c #1C001B",
"O  c #1D001C",
"+  c #1D001D",
"@  c #1E001D",
"#  c #1E001E",
"$  c #1F001E",
"%  c #1F011F",
"&  c #1F041F",
"*  c #1F061F",
"=  c #1F071F",
"-  c #1F091F",
";  c #1F0A1F",
":  c #1F0B1F",
">  c #200B1F",
",  c #200C1F",
"<  c #200D1F",
"1  c #200E1F",
"2  c #200F1F",
"3  c #20101F",
"4  c #201120",
"5  c #201320",
"6  c #201420",
"7  c #201520",
"8  c #201620",
"9  c #201720",
"0  c #201820",
"q  c #201920",
"w  c #201A20",
"e  c #211C20",
"r  c #211D21",
"t  c #211E21",
"y  c #211F21",
"u  c #212021",
"i  c gray13",
"p  c #212221",
"a  c #212321",
"s  c #212421",
"d  c #212521",
"f  c #212522",
"g  c #212622",
"h  c #222722",
"j  c #222822",
"k  c #222C23",
"l  c #222D23",
"z  c #222E23",
"x  c #232F23",
"c  c #233023",
"v  c #233123",
"b  c #233223",
"n  c #233324",
"m  c #233424",
"M  c #233524",
"N  c #243724",
"B  c #243925",
"V  c #243A25",
"C  c #243B25",
"Z  c #243C25",
"A  c #253D25",
"S  c #253D26",
"D  c #253E26",
"F  c #254026",
"G  c #254226",
"H  c #264427",
"J  c #264627",
"K  c #274928",
"L  c #274B29",
"P  c #274C29",
"I  c #284E29",
"U  c #284F29",
"Y  c #29522A",
"T  c #29532B",
"R  c #29542B",
"E  c #29552B",
"W  c #2A562B",
"Q  c #2A572B",
"!  c #2A572C",
"~  c #2A582C",
"^  c #2A592C",
"/  c #2A5A2C",
"(  c #2A5B2C",
")  c #2B5C2D",
"_  c #2B5E2D",
"`  c #2B5F2E",
"'  c #2C5F2E",
"]  c #2C612E",
"[  c #2C622E",
"{  c #2C622F",
"}  c #2D632F",
"|  c #2D642F",
" . c #2D652F",
".. c #2D662F",
"X. c #2D6630",
"o. c #2D6730",
"O. c #2E6730",
"+. c #2E6830",
"@. c #2E6930",
"#. c #2E6A31",
"$. c #2F6C31",
"%. c #2F6D31",
"&. c #2F6E32",
"*. c #2F6F32",
"=. c #306F32",
"-. c #307133",
";. c #307233",
":. c #317334",
">. c #317434",
",. c #317534",
"<. c #317735",
"1. c #327735",
"2. c #327835",
"3. c #327935",
"4. c #337B36",
"5. c #337C36",
"6. c #337D36",
"7. c #337D37",
"8. c #337E37",
"9. c #347F37",
"0. c #348038",
"q. c #348138",
"w. c #348238",
"e. c #358238",
"r. c #358338",
"t. c #358439",
"y. c #358539",
"u. c #368539",
"i. c #368639",
"p. c #36873A",
"a. c #36883A",
"s. c #36893A",
"d. c #37893A",
"f. c #378A3B",
"g. c #378B3B",
"h. c #378C3B",
"j. c #388D3C",
"k. c #388E3C",
"l. c #388F3C",
"z. c #38903D",
"x. c #39903D",
"c. c #39913D",
"v. c #39923D",
"b. c #39933D",
"n. c #39933E",
"m. c #3A933E",
"M. c #3A943E",
"N. c #3A953E",
"B. c #3A953F",
"V. c #3A963F",
"C. c #3B963F",
"Z. c #3B973F",
"A. c #3B983F",
/* pixels */
"i i i i i i i i i i i i i i i i i i i i i i i i i i i i i i i i i i i i i i i i i i i i i i i i i i i i i i i i i i i i i i i i ",
"i i i i i i i i i i i i i i i i i i i i i i i i i i i i i i i i i i i i i i i i i i i i i i i i i i i i i i i i i i i i i i i i ",
"i i i i i i i i i i i i i i i i i i i i i i i i i i i i i i i i i i i i i i i i i i i i i i i i i i i i i i i i i i i i i i i i ",
"i i i i i i i i i i i i i i i i i i i i i i i i i i i i i i i i i i i i i i i i i i i i i i i i i i i i i i i i i i i i i i i i ",
"i i i i i i i i i i i i i i i i i i i i i i i i i i i i i i i i i i i i i i i i i i i i i i i i i i i i i i i i i i i i i i i i ",
"i i i i i i i i i i i i i i i i i i i i i i i i i i i i i i i i i i i i i i i i i i i i i i i i i i i i i i i i i i i i i i i i ",
"i i i i i i i i i i i i i i i i i i i i i i i i i i i i i i i i i i i i i i i i i i i i i i i i i i i i i i i i i i i i i i i i ",
"i i i i i i i i i i i i i i i i i i i i i i i i i i i i i i i i i i i i i i i i i i i i i i i i i i i i i i i i i i i i i i i i ",
"i i i i i i i i i i i i i i i i i i i i i i i i i i i i i i i i i i i i i i i i i i i i i i i i i i i i i i i i i i i i i i i i ",
"i i i i i i i i i i i i i i i i i i i i i i i i i i i i i i i i i i i i i i i i i i i i i i i i i i i i i i i i i i i i i i i i ",
"i i i i i i i i i i i i i i i i i i i i i i i i i i i i i i i i i i i i i i i i i i i i i i i i i i i i i i i i i i i i i i i i ",
"i i i i i i i i i i i i i i i i i i i i i u u u u u u u u u u u u u u u u u u u u u u i i i i i i i i i i i i i i i i i i i i i ",
"i i i i i i i i i i i i i i i i p i r 8 1 - ; , , , , , , , , , , , , , , , , , , ; - 1 8 r i p i i i i i i i i i i i i i i i i ",
"i i i i i i i i i i i i i i i p a p q = # @ @ # # # # # # # # # # # # # # # # # # @ @ # = q p a p i i i i i i i i i i i i i i i ",
"i i i i i i i i i i i i i i i i u i a d h j j h h h h h h h h h h h h h h h h h h j j h d a i u i i i i i i i i i i i i i i i i ",
"i i i i i i i i i i i i i p i q * 3 x J E / / ~ ! ! ! ! ! ! ! ! ! ! ! ! ! ! ! ! ~ / / E J x 3 * q i p i i i i i i i i i i i i i ",
"i i i i i i i i i i i i p a u * O @ B _ >.6.5.3.2.2.2.2.2.2.2.2.2.2.2.2.2.2.2.2.3.5.6.>._ B @ O * u a p i i i i i i i i i i i i ",
"i i i i i i i i i i i i i p i 3 @ 4 P -.a.v.x.j.j.j.j.j.j.j.j.j.j.j.j.j.j.j.j.j.j.x.c.a.-.P 4 @ 3 i p i i i i i i i i i i i i i ",
"i i i i i i i i i i i i r 0 a c C U #.0.c.A.Z.N.M.M.M.M.M.M.M.M.M.M.M.M.M.M.M.m.m.V.Z.z.9.O.P B x a q r i i i i i i i i i i i i ",
"i i i i i i i i i i i i 6 % f K } 1.y.j.M.Z.Z.N.N.N.N.N.N.N.N.N.N.N.N.V.B.M.n.c.x.v.n.l.a.9.-._ J d = 8 i i i i i i i i i i i i ",
"i i i i i i i i i i i i , # h W 1.g.n.v.c.c.c.c.c.c.c.c.c.c.c.c.c.c.c.c.c.x.l.k.k.k.k.k.l.z.a.>.E h # 1 u i i i i i i i i i i i ",
"i i i i i i i i i i i i 2 $ h R :.i.g.p.r.w.w.e.e.e.e.e.e.e.e.e.e.e.w.q.q.t.s.j.l.k.k.k.n.Z.c.6./ j @ - u i i i i i i i i i i i ",
"i i i i i i i i i i i i 0 < s H ) #.&.#.o.....X.X.X.X.X.X.X.X.X.X.X. .[ | *.7.f.x.x.k.k.v.V.x.5./ j @ ; u i i i i i i i i i i i ",
"i i i i i i i i i i i i y r p k N D F D A A A A A A A A A A A A A A B c M T -.p.v.v.l.k.c.m.j.3.~ h # , u i i i i i i i i i i i ",
"i i i i i i i i i i i i p a i q : $ $ $ $ $ $ $ $ $ $ $ $ $ $ $ $ $ @ X O A #.u.v.v.l.k.c.n.j.2.! h # , u i i i i i i i i i i i ",
"i i i i i i i i i i i i p a i w 1 $ @ + O O O O O O O O O O O O O O o   . M +.y.n.n.l.k.c.n.j.2.! h # , u i i i i i i i i i i i ",
"i i i i i i i i i i i i i i i u u r 5 $ @ @ @ @ @ @ @ @ @ @ @ @ @ @ O . o V @.y.v.v.l.k.c.n.j.2.! h # , u i i i i i i i i i i i ",
"i i i i i i i i i i i i i i i u y u g l b m m n n n n n n n n n n n z u j I =.p.v.v.l.k.c.n.j.3.! h # , u i i i i i i i i i i i ",
"i i i i i i i i i i i i p p i 8 $ * v L ) { ] ' ` ` ` ` ` ` ` ` ` ` _ / ) #.4.d.x.x.k.k.v.N.l.4.^ j @ : u i i i i i i i i i i i ",
"i i i i i i i i i i i i p a u & O @ Z [ 3.e.q.8.8.8.8.8.8.7.7.7.7.8.7.5.6.q.p.h.l.l.k.k.n.Z.v.7.( j @ - u i i i i i i i i i i i ",
"i i i i i i i i i i i i i u i 9 $ p Y >.g.M.v.l.l.l.l.l.l.l.l.l.l.l.l.l.l.l.k.k.k.k.k.k.x.v.g.1.Q h # < u i i i i i i i i i i i ",
"i i i i i i i i i i i i e 9 a m G E %.q.x.C.N.n.m.M.N.N.N.N.N.N.N.N.N.N.N.M.v.c.x.c.v.l.d.r.<.| K f % 7 u i i i i i i i i i i i ",
"i i i i i i i i i i i i 7 % f K | <.r.d.l.v.c.z.c.v.M.N.N.N.N.N.N.N.N.N.N.N.M.m.n.N.V.x.q.$.E G m a 9 e i i i i i i i i i i i i ",
"i i i i i i i i i i i i , # h W 1.g.v.x.k.k.k.k.k.k.l.l.l.l.l.l.l.l.l.l.l.l.l.l.l.n.M.g.,.Y p $ 9 i u i i i i i i i i i i i i i ",
"i i i i i i i i i i i u - @ j ( 7.v.Z.n.k.k.l.l.h.p.q.6.5.6.7.7.7.8.7.8.7.8.8.7.8.q.e.3.[ Z @ O & u a p i i i i i i i i i i i i ",
"i i i i i i i i i i i u ; @ j ^ 4.l.N.v.k.k.x.x.d.4.#.) / _ ` ` ` ' ' ' ` ' ' ` ' [ { ) L v * $ 8 i p p i i i i i i i i i i i i ",
"i i i i i i i i i i i u , # h ! 3.j.n.c.k.l.v.v.p.=.I j u z n n n n n n n n n n n n m b k g u t u i i i i i i i i i i i i i i i ",
"i i i i i i i i i i i u , # h ! 2.j.n.c.k.l.v.v.y.@.V o . O @ @ @ @ @ @ @ @ @ @ @ @ @ @ $ 5 r u i i i i i i i i i i i i i i i i ",
"i i i i i i i i i i i u , # h ! 2.j.n.c.k.l.n.b.y.+.M .   o O O O O O O O O O O O O O O + @ $ 1 w i a p i i i i i i i i i i i i ",
"i i i i i i i i i i i u , # h ! 2.j.n.c.k.l.v.v.u.#.A O X @ $ $ $ $ $ $ $ $ $ $ $ $ $ $ $ $ $ > q i a p i i i i i i i i i i i i ",
"i i i i i i i i i i i u , # h ~ 3.j.m.c.k.l.v.c.p.;.T M c V A A A A A A A A A A A A A A D F S N k p r y i i i i i i i i i i i i ",
"i i i i i i i i i i i u ; @ j / 5.x.V.v.k.k.x.x.f.7.*.| [  .X.X.X.X.X.X.X.X.X.X.X.....o.#.&.#.) H s < 0 i i i i i i i i i i i i ",
"i i i i i i i i i i i u - @ j / 6.c.Z.n.k.k.k.l.j.s.t.q.q.w.e.e.e.e.e.e.e.e.e.e.e.w.w.r.p.g.i.:.R h $ 2 u i i i i i i i i i i i ",
"i i i i i i i i i i i i 1 # h E >.a.z.l.k.k.k.k.k.l.x.c.c.c.c.c.c.c.c.c.c.c.c.c.c.c.c.c.v.n.g.1.W h # < u i i i i i i i i i i i ",
"i i i i i i i i i i i i 8 = d J _ -.9.a.l.n.v.x.c.n.M.B.V.N.N.N.N.N.N.N.N.N.N.N.N.Z.Z.M.j.y.1.} K f % 7 u i i i i i i i i i i i ",
"i i i i i i i i i i i i r q a x B P O.9.z.Z.V.m.m.M.M.M.M.M.M.M.M.M.M.M.M.M.M.M.N.Z.A.c.0.#.U Z c a 0 r i i i i i i i i i i i i ",
"i i i i i i i i i i i i i p i 3 @ 4 P -.a.v.x.j.j.j.j.j.j.j.j.j.j.j.j.j.j.j.j.j.j.x.c.a.-.P 4 @ 3 i p i i i i i i i i i i i i i ",
"i i i i i i i i i i i i p a u * O @ B _ >.6.5.3.2.2.2.2.2.2.2.2.2.2.2.2.2.2.2.2.3.5.6.>._ B @ O = u a p i i i i i i i i i i i i ",
"i i i i i i i i i i i i i p i q * 3 x J E / / ~ ! ! ! ! ! ! ! ! ! ! ! ! ! ! ! ! ~ / / E J x 3 = q i p i i i i i i i i i i i i i ",
"i i i i i i i i i i i i i i i i u i a d h j j h h h h h h h h h h h h h h h h h h j j h d a i u i i i i i i i i i i i i i i i i ",
"i i i i i i i i i i i i i i i p a p q = # @ @ # # # # # # # # # # # # # # # # # # @ @ # * q p a p i i i i i i i i i i i i i i i ",
"i i i i i i i i i i i i i i i i p i r 8 1 - ; , , , , , , , , , , , , , , , , , , ; - 1 8 r i p i i i i i i i i i i i i i i i i ",
"i i i i i i i i i i i i i i i i i i i i u u u u u u u u u u u u u u u u u u u u u u u u i i i i i i i i i i i i i i i i i i i i ",
"i i i i i i i i i i i i i i i i i i i i i i i i i i i i i i i i i i i i i i i i i i i i i i i i i i i i i i i i i i i i i i i i ",
"i i i i i i i i i i i i i i i i i i i i i i i i i i i i i i i i i i i i i i i i i i i i i i i i i i i i i i i i i i i i i i i i ",
"i i i i i i i i i i i i i i i i i i i i i i i i i i i i i i i i i i i i i i i i i i i i i i i i i i i i i i i i i i i i i i i i ",
"i i i i i i i i i i i i i i i i i i i i i i i i i i i i i i i i i i i i i i i i i i i i i i i i i i i i i i i i i i i i i i i i ",
"i i i i i i i i i i i i i i i i i i i i i i i i i i i i i i i i i i i i i i i i i i i i i i i i i i i i i i i i i i i i i i i i ",
"i i i i i i i i i i i i i i i i i i i i i i i i i i i i i i i i i i i i i i i i i i i i i i i i i i i i i i i i i i i i i i i i ",
"i i i i i i i i i i i i i i i i i i i i i i i i i i i i i i i i i i i i i i i i i i i i i i i i i i i i i i i i i i i i i i i i ",
"i i i i i i i i i i i i i i i i i i i i i i i i i i i i i i i i i i i i i i i i i i i i i i i i i i i i i i i i i i i i i i i i ",
"i i i i i i i i i i i i i i i i i i i i i i i i i i i i i i i i i i i i i i i i i i i i i i i i i i i i i i i i i i i i i i i i ",
"i i i i i i i i i i i i i i i i i i i i i i i i i i i i i i i i i i i i i i i i i i i i i i i i i i i i i i i i i i i i i i i i ",
"i i i i i i i i i i i i i i i i i i i i i i i i i i i i i i i i i i i i i i i i i i i i i i i i i i i i i i i i i i i i i i i i "
};
