/* XPM */
static char *result[] = {
/* columns rows colors chars-per-pixel */
"64 64 168 2 ",
"   c #1A0017",
".  c #1A0018",
"X  c #1B0019",
"o  c #1C001A",
"O  c #1C001B",
"+  c #1D001B",
"@  c #1D001C",
"#  c #1E001C",
"$  c #1E001D",
"%  c #1E001E",
"&  c #1F001E",
"*  c #1F011F",
"=  c #1F021F",
"-  c #1F041F",
";  c #1F051F",
":  c #1F061F",
">  c #1F071F",
",  c #1F081F",
"<  c #1F091F",
"1  c #1F0A1F",
"2  c #1F0B1F",
"3  c #200B1F",
"4  c #200C1F",
"5  c #200E1F",
"6  c #200F1F",
"7  c #20101F",
"8  c #20111F",
"9  c #20121F",
"0  c #201220",
"q  c #201320",
"w  c #201420",
"e  c #201520",
"r  c #201620",
"t  c #201720",
"y  c #201820",
"u  c #201920",
"i  c #201A20",
"p  c #201B20",
"a  c #211B20",
"s  c #211C20",
"d  c #211D21",
"f  c #211E21",
"g  c #211F21",
"h  c #212021",
"j  c gray13",
"k  c #212221",
"l  c #212321",
"z  c #212421",
"x  c #212521",
"c  c #212522",
"v  c #212622",
"b  c #222622",
"n  c #222722",
"m  c #222822",
"M  c #222922",
"N  c #222A22",
"B  c #222B22",
"V  c #222D23",
"C  c #233123",
"Z  c #233223",
"A  c #233324",
"S  c #233424",
"D  c #233524",
"F  c #243725",
"G  c #243925",
"H  c #243A25",
"J  c #243B25",
"K  c #243C25",
"L  c #253D26",
"P  c #253E26",
"I  c #253F26",
"U  c #254227",
"Y  c #264227",
"T  c #264327",
"R  c #264427",
"E  c #264628",
"W  c #264728",
"Q  c #274828",
"!  c #274928",
"~  c #274A29",
"^  c #274B29",
"/  c #284D29",
"(  c #284E2A",
")  c #28502A",
"_  c #28512A",
"`  c #29522A",
"'  c #29522B",
"]  c #29532B",
"[  c #29542B",
"{  c #29552B",
"}  c #29562C",
"|  c #2A562C",
" . c #2A572C",
".. c #2A582C",
"X. c #2A592C",
"o. c #2A592D",
"O. c #2A5A2D",
"+. c #2B5C2D",
"@. c #2B5D2E",
"#. c #2B5F2E",
"$. c #2C5F2E",
"%. c #2C602E",
"&. c #2C602F",
"*. c #2C612F",
"=. c #2C622F",
"-. c #2C632F",
";. c #2D6430",
":. c #2D6530",
">. c #2D6630",
",. c #2D6730",
"<. c #2D6731",
"1. c #2E6931",
"2. c #2E6A31",
"3. c #2F6C32",
"4. c #2F6D32",
"5. c #2F6E32",
"6. c #306F33",
"7. c #307033",
"8. c #307234",
"9. c #307334",
"0. c #317535",
"q. c #317635",
"w. c #317735",
"e. c #327735",
"r. c #327836",
"t. c #327936",
"y. c #327A36",
"u. c #327B37",
"i. c #337B37",
"p. c #337C37",
"a. c #337D37",
"s. c #337E37",
"d. c #337E38",
"f. c #347F38",
"g. c #348138",
"h. c #348139",
"j. c #348239",
"k. c #358239",
"l. c #358339",
"z. c #35843A",
"x. c #35853A",
"c. c #36853A",
"v. c #36863A",
"b. c #36873B",
"n. c #36883B",
"m. c #378A3C",
"M. c #378B3C",
"N. c #378C3C",
"B. c #388C3C",
"V. c #388D3C",
"C. c #388D3D",
"Z. c #388E3D",
"A. c #388F3D",
"S. c #388F3E",
"D. c #38903E",
"F. c #39903E",
"G. c #39913E",
"H. c #39923E",
"J. c #3A933F",
"K. c #3A943F",
"L. c #3A953F",
"P. c #3A9540",
"I. c #3A9640",
"U. c #3B9740",
"Y. c #3B9840",
"T. c #3B9841",
"R. c #3B9941",
"E. c #3C9A41",
/* pixels */
"j j j j j j j j j j j j j j j j j j j j j j j j j j j j j j j j j j j j j j j j j j j j j j j j j j j j j j j j j j j j j j j j ",
"j j j j j j j j j j j j j j j j j j j j j j j j j j j j j j j j j j j j j j j j j j j j j j j j j j j j j j j j j j j j j j j j ",
"j j j j j j j j j j j j j j j j j j j j j j j j j j j j j j j j j j j j j j j j j j j j j j j j j j j j j j j j j j j j j j j j ",
"j j j j j j j j j j j j j j j j j j j j j j j j j j j j j j j j j j j j j j j j j j j j j j j j j j j j j j j j j j j j j j j j ",
"j j j j j j j j j j j j j j j j j j j j j j j j j j j j j j j j j j j j j j j j j j j j j j j j j j j j j j j j j j j j j j j j ",
"j j j j j j j j j j j j j j j j j j j j j j j j j j j j j j j j j j j j j j j j j j j j j j j j j j j j j j j j j j j j j j j j ",
"j j j j j j j j j j j j j j j j j j j j j j j j j j j j j j j j j j j j j j j j j j j j j j j j j j j j j j j j j j j j j j j j ",
"j j j j j j j j j j j j j j j j j j j j j j j j j j j j j j j j j j j j j j j j j j j j j j j j j j j j j j j j j j j j j j j j ",
"j j j j j j j j j j j j j j j j j j j j j j j j j j j j j j j j j j j j j j j j j j j j j j j j j j j j j j j j j j j j j j j j ",
"j j j j j j j j j j j j j j j j j j j j j j j j j j j j j j j j j j j j j j j j j j j j j j j j j j j j j j j j j j j j j j j j ",
"j j j j j j j j j j j j j j j j j j j j j j j j j j j j j j j j j j j j j j j j j j j j j j j j j j j j j j j j j j j j j j j j ",
"j j j j j j j j j j j j j j j j j j j j j j j j j j j j j j j j j j j j j j j j j j j j j j j j j j j j j j j j j j j j j j j j ",
"j j j j j j j j j j j j j j j j j j j j j j j j j j j j j j j j j j j j j j j j j j j j j j j j j j j j j j j j j j j j j j j j ",
"j j j j j j j j j j j j j j j j j j j j j j j j j j j j j j j j j j j j j j j j j j j j j j j j j j j j j j j j j j j j j j j j ",
"j j j j j j j j j j j j j j j j j j j j j j j j j j j j j j j j j j j j j j j j j j j j j j j j j j j j j j j j j j j j j j j j ",
"j j j j j j j j j j j j j k j d u w 9 8 q t s h k k j j j j j j j j j j j j k k h s t q 8 9 w u d j k j j j j j j j j j j j j j ",
"j j j j j j j j j j j j k l h t = % $ $ $ & 7 d l l j j j j j j j j j j j j l l d 7 & $ $ $ $ = t h l k j j j j j j j j j j j j ",
"j j j j j j j j j j j j j k j g s i u u i a f h j j j j j j j j j j j j j j j j h f a i u u i s g j k j j j j j j j j j j j j j ",
"j j j j j j j j j j j j d u l D R ( ' ] _ ! K N p a h h f p y t t y p f h j p p N K ! _ ] ' ( R D l u d j j j j j j j j j j j j ",
"j j j j j j j j j j j j r > c Q =.8.r.t.0.1.] S 5 8 h g e * % $ $ % * e g h 8 6 S ] 1.0.t.r.8.=.Q c : r j j j j j j j j j j j j ",
"j j j j j j j j j j j j 5 % n { 0.n.F.G.V.d.-.J & & f h i 9 , - - , 9 i h f & & K -.d.C.G.F.n.0.{ n % 5 h j j j j j j j j j j j ",
"j j j j j j j j j j j h < $ m O.p.G.R.E.I.v.2.P & $ r c A I W ! ! W I A x r $ & I 1.v.I.E.R.G.p.O.m $ < h j j j j j j j j j j j ",
"j j j j j j j j j j j h 1 $ m o.i.F.Y.R.K.x.1.P & $ = B ~ &.5.8.8.5.&.~ B = # & P 1.x.L.R.Y.F.i.o.m $ 1 h j j j j j j j j j j j ",
"j j j j j j j j j j j h 4 $ n ..t.C.L.I.G.k.>.L & @ $ C O.w.b.C.C.b.w.O.C $ @ & L >.k.G.I.L.C.t...n $ 4 h j j j j j j j j j j j ",
"j j j j j j j j j j j h 4 $ n  .r.C.K.P.G.k.>.L & + $ S =.h.J.R.R.J.h.=.S $ + & L >.k.G.P.K.C.r. .n $ 4 h j j j j j j j j j j j ",
"j j j j j j j j j j j h 4 $ n  .r.C.K.P.G.k.>.L & + $ S =.h.J.R.R.J.h.=.S $ + & L >.k.G.P.K.C.r. .n $ 4 h j j j j j j j j j j j ",
"j j j j j j j j j j j h 4 $ n  .r.C.K.P.G.k.>.L & + $ A $.d.F.I.I.F.d.%.A $ + & L >.k.G.P.K.C.r. .n $ 4 h j j j j j j j j j j j ",
"j j j j j j j j j j j h 4 $ n  .r.C.K.P.G.k.>.L & + $ A #.a.A.L.L.A.a.$.A $ + & L >.k.G.P.K.C.r. .n $ 4 h j j j j j j j j j j j ",
"j j j j j j j j j j j h 4 $ n  .r.C.K.P.G.k.>.L & + $ A #.a.A.L.L.A.a.$.A $ + & L >.k.G.P.K.C.r. .n $ 4 h j j j j j j j j j j j ",
"j j j j j j j j j j j h 4 $ n  .r.C.K.P.G.k.>.L & + $ A #.a.A.L.L.A.a.$.A $ + & L >.k.G.P.K.C.r. .n $ 4 h j j j j j j j j j j j ",
"j j j j j j j j j j j h 4 $ n  .r.C.K.P.G.k.>.L & + $ A #.a.A.L.L.A.a.$.A $ + & L >.k.G.P.K.C.r. .n $ 4 h j j j j j j j j j j j ",
"j j j j j j j j j j j h 4 $ n  .r.C.K.P.G.j.;.F @ o $ A $.s.A.L.L.A.s.$.A $ o @ F ;.j.G.P.K.C.r. .n $ 4 h j j j j j j j j j j j ",
"j j j j j j j j j j j h 4 $ n  .r.C.K.I.G.h.*.V o X @ S %.d.A.L.L.A.d.%.A @ X o V *.h.G.I.K.C.r. .n $ 4 h j j j j j j j j j j j ",
"j j j j j j j j j j j h 4 $ n  .r.C.K.P.G.j.:.H $ O $ A $.s.A.L.L.A.s.$.A $ O $ H :.k.G.P.K.C.r. .n $ 4 h j j j j j j j j j j j ",
"j j j j j j j j j j j h 2 $ n ..y.Z.L.L.F.x.9.+.Y x & B +.d.F.I.I.G.d.+.B & x Y +.9.x.F.L.L.Z.y...m $ 3 h j j j j j j j j j j j ",
"j j j j j j j j j j j h < $ m O.a.G.U.K.S.m.l.y.1.! < w  .f.K.E.E.K.f...w < ! 1.y.l.m.S.K.U.G.a.O.m $ < h j j j j j j j j j j j ",
"j j j j j j j j j j j h 1 $ m X.i.D.P.H.Z.Z.D.Z.h.*.V u } d.H.T.T.H.d.} u V *.h.Z.D.Z.Z.H.P.D.i.o.m $ 1 h j j j j j j j j j j j ",
"j j j j j j j j j j j j 8 & b ) 4.h.m.N.Z.G.P.I.N.0.{ E +.0.l.b.b.l.0.+.E { 0.N.I.L.G.Z.N.m.g.4.) b & 9 h j j j j j j j j j j j ",
"j j j j j j j j j j j j u 7 z P _ ;.q.x.D.P.I.K.C.k.0.2.,.,.>.:.:.>.,.,.2.0.k.C.K.I.L.D.x.q.;._ P z 7 u j j j j j j j j j j j j ",
"j j j j j j j j j j j j g d k l l G @.u.Z.I.K.D.C.C.M.k.7.| H B B H | 7.k.M.C.C.D.K.I.Z.i.@.G l l k d g j j j j j j j j j j j j ",
"j j j j j j j j j j j j k l h ; + $ T 1.h.B.Z.C.F.L.U.Z.0.^ $ . . $ ^ 0.Z.U.L.F.C.Z.B.h.1.T $ + : h l k j j j j j j j j j j j j ",
"j j j j j j j j j j j j k l h 5 $ % Z ) ,.r.z.C.K.R.E.G.e./ $     $ / e.G.E.R.K.C.z.r.,.) Z % $ 5 h l k j j j j j j j j j j j j ",
"j j j j j j j j j j j j j j j d t p v B P +.r.N.U.E.R.A.e._ q O O q _ e.A.R.E.U.N.r.+.L B v p t d j j j j j j j j j j j j j j j ",
"j j j j j j j j j j j j j j j k k j q @ $ P <.j.Z.G.A.c.6./ p @ @ p / 6.c.A.G.Z.j.<.P $ # q j k j j j j j j j j j j j j j j j j ",
"j j j j j j j j j j j j j j j k l j q $ @ V [ 3.w.t.e.6.@.U d & & d U @.6.e.t.w.3.[ V @ $ q j l k j j j j j j j j j j j j j j j ",
"j j j j j j j j j j j j j j j j k j d q q M L ^ ` ] ' / U C g r r g C U / ' ] ` ^ L M q q d j k j j j j j j j j j j j j j j j j ",
"j j j j j j j j j j j j j j j j j j j j j h d p u u u p d g j k k j g d p u u u p d h j j j j j j j j j j j j j j j j j j j j j ",
"j j j j j j j j j j j j j j j j j j k l k s 4 & $ $ $ % > u k z z k u > % $ $ $ & 4 s k l k j j j j j j j j j j j j j j j j j j ",
"j j j j j j j j j j j j j j j j j j j k k g p e 0 8 9 e u f j k k j f i e 9 8 0 r p g k k j j j j j j j j j j j j j j j j j j j ",
"j j j j j j j j j j j j j j j j j j j j j j j j j j j j j j j j j j j j j j j j j j j j j j j j j j j j j j j j j j j j j j j j ",
"j j j j j j j j j j j j j j j j j j j j j j j j j j j j j j j j j j j j j j j j j j j j j j j j j j j j j j j j j j j j j j j j ",
"j j j j j j j j j j j j j j j j j j j j j j j j j j j j j j j j j j j j j j j j j j j j j j j j j j j j j j j j j j j j j j j j ",
"j j j j j j j j j j j j j j j j j j j j j j j j j j j j j j j j j j j j j j j j j j j j j j j j j j j j j j j j j j j j j j j j ",
"j j j j j j j j j j j j j j j j j j j j j j j j j j j j j j j j j j j j j j j j j j j j j j j j j j j j j j j j j j j j j j j j ",
"j j j j j j j j j j j j j j j j j j j j j j j j j j j j j j j j j j j j j j j j j j j j j j j j j j j j j j j j j j j j j j j j ",
"j j j j j j j j j j j j j j j j j j j j j j j j j j j j j j j j j j j j j j j j j j j j j j j j j j j j j j j j j j j j j j j j ",
"j j j j j j j j j j j j j j j j j j j j j j j j j j j j j j j j j j j j j j j j j j j j j j j j j j j j j j j j j j j j j j j j ",
"j j j j j j j j j j j j j j j j j j j j j j j j j j j j j j j j j j j j j j j j j j j j j j j j j j j j j j j j j j j j j j j j ",
"j j j j j j j j j j j j j j j j j j j j j j j j j j j j j j j j j j j j j j j j j j j j j j j j j j j j j j j j j j j j j j j j ",
"j j j j j j j j j j j j j j j j j j j j j j j j j j j j j j j j j j j j j j j j j j j j j j j j j j j j j j j j j j j j j j j j ",
"j j j j j j j j j j j j j j j j j j j j j j j j j j j j j j j j j j j j j j j j j j j j j j j j j j j j j j j j j j j j j j j j ",
"j j j j j j j j j j j j j j j j j j j j j j j j j j j j j j j j j j j j j j j j j j j j j j j j j j j j j j j j j j j j j j j j ",
"j j j j j j j j j j j j j j j j j j j j j j j j j j j j j j j j j j j j j j j j j j j j j j j j j j j j j j j j j j j j j j j j ",
"j j j j j j j j j j j j j j j j j j j j j j j j j j j j j j j j j j j j j j j j j j j j j j j j j j j j j j j j j j j j j j j j "
};
